<?xml version="1.0" encoding="UTF-8" standalone="no"?>
<!DOCTYPE svg PUBLIC "-//W3C//DTD SVG 1.1//EN" "http://www.w3.org/Graphics/SVG/1.1/DTD/svg11.dtd">
<svg width="100%" height="100%" viewBox="0 0 842 596" version="1.1" xmlns="http://www.w3.org/2000/svg" xmlns:xlink="http://www.w3.org/1999/xlink" xml:space="preserve" style="fill-rule:evenodd;clip-rule:evenodd;stroke-linejoin:round;stroke-miterlimit:1.41421;">
    <g id="Ebene-1">
        <path d="M96.964,130.706L96.964,248.224C96.964,272.721 116.894,292.65 141.391,292.65L154.798,292.65L154.798,266.622L141.391,266.622C131.246,266.622 122.993,258.368 122.993,248.224L122.993,130.706C122.993,120.561 131.246,112.308 141.391,112.308L154.798,112.308L154.798,86.279L141.391,86.279C116.894,86.279 96.964,106.209 96.964,130.706" style="fill:white;fill-rule:nonzero;"/>
        <path d="M96.964,352.01L96.964,469.528C96.964,494.025 116.894,513.954 141.391,513.954L154.798,513.954L154.798,487.926L141.391,487.926C131.246,487.926 122.993,479.673 122.993,469.528L122.993,352.01C122.993,341.865 131.246,333.613 141.391,333.613L154.798,333.613L154.798,307.583L141.391,307.583C116.894,307.583 96.964,327.513 96.964,352.01" style="fill:white;fill-rule:nonzero;"/>
        <path d="M352.126,292.65L365.535,292.65L365.535,266.621L352.126,266.621C341.982,266.621 333.728,258.368 333.728,248.223L333.728,130.706C333.728,120.561 341.982,112.308 352.126,112.308L365.535,112.308L365.535,86.279L352.126,86.279C327.629,86.279 307.699,106.209 307.699,130.706L307.699,248.223C307.699,272.72 327.629,292.65 352.126,292.65" style="fill:white;fill-rule:nonzero;"/>
        <rect x="167.761" y="86.469" width="26.029" height="206.377" style="fill:white;fill-rule:nonzero;"/>
        <rect x="479.444" y="86.469" width="26.029" height="206.811" style="fill:white;fill-rule:nonzero;"/>
        <path d="M607.02,112.513L607.02,86.47L516.495,86.47L516.495,112.513L548.786,112.513L548.786,292.846L574.816,292.846L574.816,112.513L607.02,112.513Z" style="fill:white;fill-rule:nonzero;"/>
        <path d="M440.02,249.255C440.02,259.4 431.767,267.653 421.621,267.653C411.478,267.653 403.224,259.4 403.224,249.255L403.224,86.469L377.195,86.469L377.195,249.255C377.195,273.752 397.125,293.682 421.621,293.682C446.12,293.682 466.049,273.752 466.049,249.255L466.049,86.469L440.02,86.469L440.02,249.255Z" style="fill:white;fill-rule:nonzero;"/>
        <path d="M279.379,470.56C279.379,480.705 271.126,488.958 260.982,488.958C250.837,488.958 242.584,480.705 242.584,470.56L242.584,308.017L216.555,308.017L216.555,470.56C216.555,495.057 236.484,514.987 260.982,514.987C285.479,514.987 305.408,495.057 305.408,470.56L305.408,308.017L279.379,308.017L279.379,470.56Z" style="fill:white;fill-rule:nonzero;"/>
        <path d="M233.214,131.428C233.214,120.813 241.296,112.498 251.612,112.498C261.756,112.498 270.009,120.752 270.009,130.896L270.009,173.332C270.009,183.477 261.756,191.73 251.612,191.73L233.214,191.73L233.214,131.428ZM233.214,217.759L251.612,217.759C261.756,217.759 270.009,226.012 270.009,236.157L270.009,292.562L296.039,292.562L296.039,236.157C296.039,223.902 291.05,212.79 282.999,204.744C291.05,196.699 296.039,185.587 296.039,173.332L296.039,130.896C296.039,106.399 276.109,86.47 251.612,86.47C239.69,86.47 228.514,91.133 220.144,99.602C211.787,108.056 207.185,119.359 207.185,131.428L207.185,293.094L233.214,293.094L233.214,217.759Z" style="fill:white;fill-rule:nonzero;"/>
        <path d="M695.213,146.508L695.213,131.381C695.213,106.883 675.283,86.954 650.786,86.954C626.289,86.954 606.359,106.883 606.359,131.381L606.359,145.147C606.359,169.619 626.269,189.598 650.74,189.684C660.91,189.72 669.184,198.023 669.184,208.193L669.184,249.091C669.184,259.236 660.931,267.488 650.786,267.488C640.642,267.488 632.389,259.236 632.389,249.091L632.389,206.353L606.359,206.353L606.359,249.091C606.359,273.588 626.289,293.517 650.786,293.517C675.283,293.517 695.213,273.588 695.213,249.091L695.213,208.193C695.213,183.721 675.304,163.742 650.832,163.655C640.662,163.62 632.389,155.317 632.389,145.147L632.389,131.381C632.389,121.236 640.642,112.983 650.786,112.983C660.931,112.983 669.184,121.236 669.184,131.381L669.184,146.508L695.213,146.508Z" style="fill:white;fill-rule:nonzero;"/>
        <path d="M192.962,470.542L192.962,308.017L166.933,308.017L166.933,470.542C166.933,495.039 186.863,514.969 211.36,514.969L211.36,488.94C201.215,488.94 192.962,480.688 192.962,470.542" style="fill:white;fill-rule:nonzero;"/>
        <path d="M380.368,394.105C380.368,404.25 372.115,412.502 361.97,412.502L343.572,412.502L343.572,352.627C343.572,342.483 351.826,334.229 361.97,334.229C372.115,334.229 380.368,342.483 380.368,352.627L380.368,394.105ZM380.368,470.56C380.368,480.705 372.114,488.959 361.97,488.959C351.825,488.959 343.572,480.705 343.572,470.56L343.572,438.532L361.97,438.532C372.115,438.532 380.368,446.785 380.368,456.929L380.368,470.56ZM361.97,308.201C337.472,308.201 317.543,328.13 317.543,352.627L317.543,470.56C317.543,495.057 337.473,514.987 361.97,514.987C386.467,514.987 406.397,495.057 406.397,470.56L406.397,456.929C406.397,444.675 401.409,433.563 393.357,425.517C401.409,417.471 406.397,406.359 406.397,394.105L406.397,352.627C406.397,328.13 386.467,308.201 361.97,308.201" style="fill:white;fill-rule:nonzero;"/>
    </g>
</svg>
